<svg width="36" height="24" viewBox="0 0 36 24" fill="none" xmlns="http://www.w3.org/2000/svg">
<path fillRule="evenodd" clipRule="evenodd" d="M31.7529 11.4988C31.7699 11.5062 31.7863 11.5142 31.8024 11.5227C31.8881 11.5663 31.9676 11.6215 32.0387 11.6865C32.1511 11.7855 32.2403 11.9081 32.299 12.0455C32.348 12.1606 32.375 12.2837 32.3791 12.4085V12.4214L34.5373 9.96494L34.5671 9.93108L35.9075 8.4025C36.0059 8.29006 36.0211 8.18916 35.9755 8.10449C35.9732 8.10381 35.9709 8.10259 35.9691 8.10095C35.9676 8.0993 35.9662 8.09727 35.9653 8.09501C35.961 8.0853 35.9558 8.07602 35.9497 8.06724C35.9369 8.05171 35.9229 8.03742 35.9075 8.02458C35.8797 8.00706 35.8472 7.99855 35.8143 8.0002H34.5012C34.3913 8.00013 34.2813 8.00896 34.173 8.02661C33.813 8.15695 33.4908 8.37376 33.2351 8.65782C32.6978 9.27041 32.2301 10.2698 31.9037 11.0923L31.7529 11.4988ZM32.9014 9.48477C32.8373 9.63431 32.785 9.78849 32.7448 9.94598C32.7186 10.0523 32.6974 10.16 32.6784 10.269V10.2692C32.6701 10.3213 32.662 10.3734 32.6545 10.4248C32.6355 10.5813 32.6193 10.7377 32.6112 10.8989C32.6053 11.0141 32.5969 11.1268 32.5888 11.2389V11.2389C32.5854 11.2837 32.5823 11.3283 32.5791 11.373C32.5703 11.4834 32.5572 11.5938 32.5419 11.7035C32.5396 11.7211 32.5367 11.7387 32.5337 11.7563C32.5324 11.7651 32.5308 11.7739 32.5294 11.7827C32.5035 11.9559 32.4669 12.1274 32.42 12.2961C32.5148 12.1369 32.5895 11.9668 32.643 11.7895L33.2872 10.9192L33.6272 10.4634L32.7179 11.5057C32.7254 11.4685 32.7319 11.4312 32.7387 11.394C32.7518 11.3263 32.7619 11.2585 32.7708 11.1908L33.6211 10.0327L32.8001 10.9632C32.8005 10.9574 32.8015 10.9515 32.8024 10.9455V10.9455C32.8039 10.9362 32.8055 10.9267 32.8055 10.9172L32.8306 10.6666L32.8353 10.6707L33.4389 9.83289L33.5667 9.65477L33.4112 9.83221L32.859 10.4458C32.8714 10.3465 32.8863 10.2476 32.9042 10.1492L33.557 9.23147L32.9549 9.89451C32.9823 9.77533 33.0127 9.65748 33.0502 9.54165C33.1509 9.24353 33.273 8.95292 33.4152 8.67204C33.2026 8.91473 33.0292 9.18892 32.9014 9.48477Z" fill="#3F177A"/>
<path d="M12.0201 9.79839C11.9578 9.79839 11.9096 9.77861 11.8756 9.73911C11.8417 9.69396 11.8303 9.64033 11.8417 9.57823L12.0116 8.79083C12.0229 8.72874 12.0541 8.67792 12.1051 8.63842C12.1617 8.59325 12.2184 8.57068 12.275 8.57068H13.3371C13.3994 8.57068 13.4476 8.59325 13.4816 8.63842C13.5156 8.67792 13.5269 8.72874 13.5156 8.79083L13.3371 9.57823C13.3315 9.64033 13.3031 9.69396 13.2522 9.73911C13.2012 9.77861 13.1445 9.79839 13.0822 9.79839H12.0201Z" fill="#3F177A"/>
<path d="M10.9495 14.8107C10.8871 14.8107 10.839 14.7909 10.805 14.7514C10.7767 14.7062 10.7682 14.6554 10.7795 14.599L11.6207 10.6196C11.6321 10.5632 11.6632 10.5152 11.7142 10.4757C11.7652 10.4306 11.8218 10.408 11.8841 10.408H12.9463C13.0086 10.408 13.0539 10.4277 13.0822 10.4672C13.1162 10.5067 13.1276 10.5576 13.1162 10.6196L12.2665 14.599C12.2552 14.6611 12.224 14.7119 12.173 14.7514C12.1277 14.7909 12.0739 14.8107 12.0116 14.8107H10.9495Z" fill="#3F177A"/>
<path fillRule="evenodd" clipRule="evenodd" d="M0.0424823 14.7683C0.0708116 14.7965 0.11045 14.8108 0.161443 14.8108H1.32554C1.4615 14.8108 1.56912 14.7487 1.64842 14.6245L2.14126 13.8031H4.359L4.49496 14.6076C4.5176 14.743 4.60541 14.8108 4.75837 14.8108H5.8375C5.8998 14.8108 5.95079 14.7882 5.99045 14.743C6.03011 14.6979 6.04709 14.6358 6.04142 14.5568L5.21721 9.12952C5.19455 8.96582 5.09823 8.88397 4.9283 8.88397H3.55179C3.3875 8.88397 3.25721 8.96582 3.16091 9.12952L0.025485 14.5568C0.00848744 14.5907 0 14.6216 0 14.6498C0 14.695 0.0141531 14.7345 0.0424823 14.7683ZM4.27404 12.5332H2.76155L3.97664 10.3742L4.27404 12.5332Z" fill="#3F177A"/>
<path d="M7.16772 14.7599C7.2017 14.7938 7.25836 14.8107 7.33766 14.8107H8.30634C8.38564 14.8107 8.44794 14.7938 8.49329 14.7599C8.54426 14.7204 8.5924 14.6667 8.63771 14.599L11.0764 10.6704C11.1047 10.6253 11.1189 10.5858 11.1189 10.5519C11.1189 10.5067 11.1047 10.4729 11.0764 10.4503C11.048 10.4221 11.0084 10.408 10.9574 10.408H9.86979C9.75086 10.408 9.65736 10.4672 9.58941 10.5858L8.1109 13.1173L7.72853 10.6027C7.71153 10.5406 7.68603 10.4927 7.65205 10.4588C7.62372 10.4249 7.57275 10.408 7.4991 10.408H6.54744C6.46247 10.408 6.40017 10.4306 6.36051 10.4757C6.32652 10.5209 6.31518 10.5801 6.32651 10.6535L7.09976 14.599C7.11673 14.6667 7.1394 14.7204 7.16772 14.7599Z" fill="#3F177A"/>
<path fillRule="evenodd" clipRule="evenodd" d="M13.6148 14.5144C13.8754 14.7683 14.2436 14.8954 14.7194 14.8954C15.0196 14.8954 15.2689 14.8503 15.4672 14.76C15.6654 14.6641 15.8637 14.523 16.062 14.3368L16.0025 14.599C15.9912 14.6555 16.0025 14.7063 16.0365 14.7514C16.0704 14.7909 16.1186 14.8108 16.1809 14.8108H17.1921C17.2487 14.8108 17.3025 14.7909 17.3535 14.7514C17.4045 14.7119 17.4356 14.6611 17.447 14.599L18.2966 10.6197C18.3079 10.5632 18.2966 10.5153 18.2628 10.4758C18.2287 10.4306 18.1806 10.408 18.1183 10.408H17.1156C17.0533 10.408 16.9966 10.4278 16.9457 10.4673C16.9003 10.5068 16.872 10.5576 16.8607 10.6197L16.8097 10.8314C16.6908 10.6677 16.5406 10.5435 16.3594 10.4588C16.1781 10.3685 15.9288 10.3234 15.6116 10.3234C15.0395 10.3234 14.5693 10.4983 14.2011 10.8483C13.8329 11.1926 13.5666 11.678 13.4024 12.3046L13.2749 12.9058C13.2466 13.0526 13.2324 13.2219 13.2324 13.4137C13.2324 13.888 13.3599 14.2548 13.6148 14.5144ZM15.9515 13.49C15.7985 13.6424 15.5975 13.7185 15.3482 13.7185C15.1556 13.7185 15.0196 13.6706 14.9403 13.5747C14.861 13.4787 14.8214 13.3404 14.8214 13.1598C14.8214 13.0695 14.8299 12.9736 14.8469 12.872C14.8639 12.7137 14.9007 12.5388 14.9573 12.3469C15.0366 12.0817 15.1471 11.8756 15.2887 11.7289C15.4303 11.5764 15.6229 11.5003 15.8665 11.5003C16.0648 11.5003 16.2092 11.551 16.2999 11.6526C16.3905 11.7543 16.4358 11.8926 16.4358 12.0675C16.4358 12.107 16.4302 12.172 16.4188 12.2623C16.3905 12.4485 16.3452 12.6602 16.2829 12.8973C16.2206 13.1343 16.1101 13.3318 15.9515 13.49Z" fill="#3F177A"/>
<path d="M20.7512 14.8108C19.6921 14.8108 19.1623 14.4158 19.1623 13.6255C19.1623 13.4675 19.1821 13.3009 19.2219 13.1259L19.5532 11.5595H18.8905C18.8282 11.5595 18.7799 11.5398 18.746 11.5003C18.7119 11.4551 18.7036 11.4043 18.7205 11.3478L18.865 10.6197C18.8763 10.5632 18.9074 10.5153 18.9584 10.4758C19.0095 10.4306 19.0661 10.408 19.1284 10.408H19.7997L20.097 9.01101C20.1083 8.94891 20.1395 8.8981 20.1905 8.85859C20.2415 8.81909 20.2952 8.79932 20.3519 8.79932H21.397C21.4593 8.79932 21.5047 8.82191 21.5331 8.86706C21.567 8.90656 21.5783 8.95455 21.567 9.01101L21.2697 10.408H22.3318C22.3941 10.408 22.4394 10.4278 22.4677 10.4673C22.5017 10.5068 22.513 10.5576 22.5017 10.6197L22.3487 11.3478C22.3374 11.4099 22.3063 11.4607 22.2552 11.5003C22.2042 11.5398 22.1505 11.5595 22.0938 11.5595H21.0232L20.7173 12.9988C20.6948 13.0948 20.6833 13.1907 20.6833 13.2866C20.6833 13.3941 20.7088 13.4731 20.7598 13.5239C20.8164 13.5747 20.9099 13.6 21.0401 13.6H21.7284C21.7907 13.6 21.8361 13.6225 21.8645 13.6677C21.8984 13.7072 21.9097 13.758 21.8984 13.82L21.7284 14.599C21.7171 14.6611 21.686 14.7119 21.6349 14.7514C21.5839 14.7909 21.5302 14.8108 21.4735 14.8108H20.7512Z" fill="#3F177A"/>
<path d="M22.4399 14.7514C22.474 14.7909 22.522 14.8107 22.5843 14.8107H23.706C23.7681 14.8107 23.825 14.7909 23.8757 14.7514C23.927 14.7119 23.9581 14.6611 23.9694 14.599L24.4281 12.4654C24.4735 12.2396 24.5696 12.0647 24.717 11.9405C24.8642 11.8163 25.0511 11.7542 25.278 11.7542H26.1362C26.1985 11.7542 26.255 11.7344 26.3062 11.6949C26.357 11.6498 26.3854 11.599 26.3911 11.5425L26.5863 10.6196C26.5978 10.5576 26.5863 10.5067 26.5525 10.4672C26.5242 10.4277 26.4816 10.408 26.4249 10.408H25.9324C25.6376 10.408 25.3884 10.4559 25.1845 10.5519C24.9807 10.6422 24.8049 10.7749 24.6577 10.9499L24.7256 10.6281C24.7369 10.566 24.7256 10.5152 24.6918 10.4757C24.6633 10.4306 24.6179 10.408 24.5556 10.408H23.5191C23.4568 10.408 23.3999 10.4306 23.3491 10.4757C23.2981 10.5152 23.2669 10.566 23.2554 10.6281L22.4144 14.599C22.4031 14.6554 22.4117 14.7062 22.4399 14.7514Z" fill="#3F177A"/>
<path d="M27.5884 9.79839C27.5259 9.79839 27.4778 9.77861 27.4439 9.73911C27.4098 9.69396 27.3983 9.64033 27.4098 9.57823L27.5796 8.79083C27.5911 8.72874 27.6223 8.67792 27.6733 8.63842C27.7299 8.59325 27.7866 8.57068 27.8432 8.57068H28.9053C28.9676 8.57068 29.0159 8.59325 29.0498 8.63842C29.0836 8.67792 29.0952 8.72874 29.0836 8.79083L28.9053 9.57823C28.8994 9.64033 28.8715 9.69396 28.8202 9.73911C28.7694 9.77861 28.7125 9.79839 28.6505 9.79839H27.5884Z" fill="#3F177A"/>
<path d="M26.5175 14.8107C26.4554 14.8107 26.4071 14.7909 26.3733 14.7514C26.3448 14.7062 26.3365 14.6554 26.3477 14.599L27.1888 10.6196C27.2001 10.5632 27.2313 10.5152 27.2823 10.4757C27.3333 10.4306 27.3899 10.408 27.4523 10.408H28.5143C28.5768 10.408 28.622 10.4277 28.6504 10.4672C28.6845 10.5067 28.6958 10.5576 28.6845 10.6196L27.8346 14.599C27.8234 14.6611 27.7922 14.7119 27.7412 14.7514C27.696 14.7909 27.6421 14.8107 27.5796 14.8107H26.5175Z" fill="#3F177A"/>
<path fillRule="evenodd" clipRule="evenodd" d="M29.4055 10.7103L30.2301 12.3615C30.2168 12.4263 30.2098 12.4934 30.2098 12.562C30.2098 13.1135 30.6585 13.5607 31.212 13.5607C31.7657 13.5607 32.2143 13.1135 32.2143 12.562C32.2143 12.0834 31.8763 11.6834 31.4251 11.5861L30.8924 10.5663C30.8472 10.4647 30.7705 10.4139 30.663 10.4139H29.6093C29.547 10.4139 29.4933 10.4393 29.4479 10.4901C29.4082 10.5353 29.3885 10.5861 29.3885 10.6425C29.3885 10.6538 29.3942 10.6764 29.4055 10.7103ZM31.212 12.9428C31.4231 12.9428 31.5942 12.7724 31.5942 12.562C31.5942 12.3518 31.4231 12.1813 31.212 12.1813C31.0012 12.1813 30.8298 12.3518 30.8298 12.562C30.8298 12.7724 31.0012 12.9428 31.212 12.9428Z" fill="#3F177A"/>
<path fillRule="evenodd" clipRule="evenodd" d="M30.6512 13.6268C30.6673 13.6354 30.6835 13.6433 30.7007 13.6507L30.5497 14.0573C30.2235 14.8796 29.7558 15.8791 29.2185 16.4915C28.9628 16.7757 28.6404 16.9924 28.2806 17.1229C28.172 17.1405 28.0623 17.1493 27.9524 17.1493H26.6391C26.6064 17.1509 26.5739 17.1423 26.5459 17.1249C26.5308 17.1121 26.5165 17.0979 26.5039 17.0823C26.4978 17.0735 26.4926 17.0642 26.4883 17.0545C26.4874 17.0523 26.4861 17.0502 26.4845 17.0484C26.4827 17.0468 26.4802 17.0457 26.4779 17.045C26.4326 16.9604 26.4477 16.8595 26.5459 16.7471L27.8865 15.2184L27.9163 15.1846L30.0743 12.7281V12.741C30.0786 12.8658 30.1057 12.9889 30.1546 13.104C30.2133 13.2412 30.3025 13.364 30.4149 13.4629C30.4858 13.5279 30.5655 13.5832 30.6512 13.6268ZM29.7086 15.2035C29.6684 15.3609 29.616 15.5153 29.5522 15.6647C29.4244 15.9606 29.251 16.2347 29.0384 16.4773C29.1806 16.1965 29.3025 15.906 29.4034 15.6078C29.4409 15.492 29.4714 15.3742 29.4987 15.255L28.8964 15.918L29.5495 15.0004C29.5673 14.9019 29.5822 14.8031 29.5944 14.7037L29.0425 15.3173L28.8869 15.4947L29.0147 15.3166L29.6183 14.4787L29.623 14.4828L29.6481 14.2322C29.6481 14.2227 29.6497 14.2132 29.651 14.204C29.6522 14.1979 29.6531 14.192 29.6535 14.1861L28.8325 15.1168L29.6829 13.9586C29.6917 13.8909 29.7018 13.8232 29.7149 13.7555C29.7215 13.7182 29.7282 13.681 29.7357 13.6437L28.8262 14.6861L29.1664 14.2302L29.8104 13.36C29.8639 13.1828 29.9388 13.0126 30.0334 12.8534C29.9865 13.0221 29.9501 13.1936 29.9239 13.3667C29.9226 13.3755 29.9212 13.3844 29.9199 13.3932C29.9169 13.4108 29.914 13.4284 29.9118 13.446C29.8964 13.5557 29.8833 13.6661 29.8745 13.7764C29.8713 13.8211 29.8682 13.8658 29.8648 13.9105C29.8567 14.0227 29.8483 14.1354 29.8425 14.2505C29.8343 14.4117 29.8179 14.5683 29.7991 14.7247C29.7917 14.776 29.7835 14.8281 29.7752 14.8803V14.8805C29.7562 14.9895 29.735 15.0972 29.7086 15.2035Z" fill="#3F177A"/>
<path d="M31.2123 13.7545C31.6443 13.7545 32.0233 13.5263 32.2335 13.1839L32.9001 14.518C32.9111 14.5518 32.9168 14.5744 32.9168 14.5857C32.9168 14.6421 32.8971 14.6929 32.8574 14.7381C32.812 14.7888 32.7583 14.8144 32.696 14.8144H31.6423C31.5346 14.8144 31.4581 14.7636 31.4129 14.662L30.9202 13.7189C31.0136 13.7424 31.1114 13.7545 31.2123 13.7545Z" fill="#3F177A"/>
</svg>
